<svg width="355" height="225" viewBox="0 0 355 225" fill="none" xmlns="http://www.w3.org/2000/svg">
<path fill-rule="evenodd" clip-rule="evenodd" d="M378.205 -4.91815C369.543 0.263092 354.706 16.3584 341.603 62.9568C325.618 119.805 278.792 140.103 230.902 150.547C212.65 154.527 193.135 157.309 174.237 160.002C168.444 160.828 162.709 161.645 157.087 162.486C132.583 166.151 109.711 170.32 89.7394 177.461C74.0099 183.086 65.1951 189.23 60.4393 194.467C55.9724 199.386 54.7213 203.859 54.7313 207.908C54.755 217.415 62.0092 228.894 71.0734 237.003L49.7382 260.853C38.0466 250.394 22.7885 230.939 22.7314 207.988C22.7011 195.808 27.0176 183.671 36.7496 172.954C46.1929 162.555 60.2086 154.037 78.9645 147.33C102.1 139.057 127.641 134.534 152.353 130.838C158.5 129.919 164.573 129.052 170.57 128.197C189.203 125.539 207.086 122.989 224.084 119.282C268.823 109.525 299.815 93.3529 310.797 54.2947C324.662 4.98695 342.554 -20.8806 361.778 -32.3801C381.908 -44.4215 400.197 -38.8459 408.319 -33.2625L390.191 -6.89217C390.254 -6.84913 390.241 -6.85433 390.158 -6.88899C389.538 -7.14472 385.035 -9.00367 378.205 -4.91815Z" fill="url(#paint0_linear_19_3)"/>
<defs>
<linearGradient id="paint0_linear_19_3" x1="250.18" y1="-9.13532" x2="60.0719" y2="197.723" gradientUnits="userSpaceOnUse">
<stop stop-color="#B3DEFF"/>
<stop offset="1" stop-color="#DFF0FD"/>
</linearGradient>
</defs>
</svg>
