<svg width="18" height="18" viewBox="0 0 18 18" fill="none" xmlns="http://www.w3.org/2000/svg">
<path d="M18 8.64C18 9.54275 16.5513 10.2045 16.288 11.019C16.0151 11.8632 16.7904 13.2523 16.2813 13.955C15.7671 14.6648 14.2092 14.3507 13.5028 14.867C12.8032 15.3784 12.6221 16.9669 11.7817 17.2411C10.9709 17.5054 9.89862 16.336 9 16.336C8.10138 16.336 7.02906 17.5054 6.21827 17.2409C5.37794 16.9669 5.19676 15.3784 4.49724 14.8668C3.79083 14.3503 2.23247 14.6646 1.71867 13.9548C1.20958 13.2521 1.98492 11.863 1.71197 11.0188C1.44867 10.2045 0 9.54275 0 8.64C0 7.73726 1.44867 7.07548 1.71197 6.26097C1.98492 5.41679 1.20958 4.02775 1.71867 3.32502C2.23287 2.61517 3.79083 2.92934 4.49724 2.41298C5.19676 1.90156 5.37794 0.3131 6.21827 0.0388934C7.02906 -0.225421 8.10138 0.944013 9 0.944013C9.89862 0.944013 10.9709 -0.225421 11.7817 0.0390914C12.6221 0.3131 12.8032 1.90156 13.5028 2.41317C14.2092 2.92974 15.7675 2.61537 16.2813 3.32522C16.7904 4.02795 16.0151 5.41698 16.288 6.26117C16.5513 7.07548 18 7.73726 18 8.64Z" fill="black"/>
<path d="M9.11422 4.21881L6.5232 9.0962C6.49479 9.14975 6.48068 9.20973 6.48223 9.27034C6.48379 9.33095 6.50095 9.39013 6.53207 9.44215C6.56319 9.49417 6.6072 9.53726 6.65984 9.56725C6.71248 9.59724 6.77197 9.61311 6.83255 9.61332H8.19451C8.24068 9.61329 8.28641 9.62237 8.32907 9.64004C8.37174 9.65771 8.41051 9.68362 8.44317 9.71629C8.47582 9.74896 8.50173 9.78775 8.51941 9.83045C8.53708 9.87315 8.54618 9.91891 8.54618 9.96513L8.54618 12.8952C8.54618 13.2575 9.0272 13.3834 9.20422 13.0672L11.9094 8.23658C11.9393 8.18305 11.9547 8.12262 11.9541 8.06128C11.9535 7.99995 11.9369 7.93983 11.9059 7.8869C11.875 7.83396 11.8307 7.79004 11.7776 7.75949C11.7245 7.72894 11.6643 7.71282 11.603 7.71273L10.1265 7.71115C10.0334 7.71099 9.94411 7.67386 9.87829 7.60791C9.81247 7.54195 9.77548 7.45256 9.77543 7.35934V4.38413C9.77602 4.01747 9.2861 3.89532 9.11422 4.21881Z" fill="white"/>
</svg>
